<svg width="76" height="96" viewBox="0 0 76 96" fill="none" xmlns="http://www.w3.org/2000/svg">
    <path fill-rule="evenodd" clip-rule="evenodd"
          d="M38 94C42.4183 94 46 90.4183 46 86C46 81.5817 42.4183 78 38 78C33.5817 78 30 81.5817 30 86C30 90.4183 33.5817 94 38 94ZM38 96C43.5228 96 48 91.5228 48 86C48 80.4772 43.5228 76 38 76C32.4772 76 28 80.4772 28 86C28 91.5228 32.4772 96 38 96Z"
          fill="#FF2E35"/>
    <path d="M76 37.6923C76 16.788 58.8439 -0.141931 37.7326 -9.1777e-05C17.5279 0.138911 0.823667 16.1441 0.0314939 36.1718C-0.586229 51.7769 8.36504 65.3793 21.5346 71.6713C21.6976 71.7649 33.4029 78.4257 37.2608 85.5545C37.5811 86.1474 38.4219 86.1474 38.7422 85.5545C42.6258 78.3718 54.4712 71.6685 54.4712 71.6685C67.2089 65.5807 76 52.6535 76 37.6923ZM37.9986 23.8913C45.6858 23.8913 51.9145 30.0698 51.9145 37.6923C51.9145 45.3147 45.6858 51.4961 37.9986 51.4961C30.3114 51.4961 24.0855 45.3147 24.0855 37.6923C24.0855 30.0698 30.3142 23.8913 37.9986 23.8913Z"
          fill="#FF2E35"/>
</svg>
