<svg width="31" height="31" viewBox="0 0 31 31" fill="none" xmlns="http://www.w3.org/2000/svg">
    <g clip-path="url(#clip0_1025_1512)">
        <path d="M15.5 23.25C19.7802 23.25 23.25 19.7802 23.25 15.5C23.25 11.2198 19.7802 7.75 15.5 7.75C11.2198 7.75 7.75 11.2198 7.75 15.5C7.75 19.7802 11.2198 23.25 15.5 23.25Z"
              fill="#FF2E35"/>
        <path d="M15.5 1.91813C22.9788 1.91813 29.0819 8.00187 29.0819 15.5C29.0819 22.9981 22.9981 29.0819 15.5 29.0819C8.00187 29.0819 1.91813 22.9788 1.91813 15.5C1.91813 8.02125 8.02125 1.91813 15.5 1.91813ZM15.5 0C6.93625 0 0 6.93625 0 15.5C0 24.0637 6.93625 31 15.5 31C24.0637 31 31 24.0637 31 15.5C31 6.93625 24.0637 0 15.5 0Z"
              fill="#FF2E35"/>
    </g>
</svg>
